<svg width="23" height="23" viewBox="0 0 23 23" fill="none" xmlns="http://www.w3.org/2000/svg">
<rect width="23" height="23" rx="11.5" fill="white"/>
<path d="M14.409 7.51019H12.582C12.4119 7.51019 12.2481 7.57251 12.1226 7.68468L10.0318 9.55422C10.0297 9.5563 10.0276 9.56045 10.0255 9.56253C9.67239 9.88658 9.67877 10.4038 9.98079 10.7258C10.2509 11.0145 10.8188 11.0914 11.174 10.7819C11.1761 10.7798 11.1804 10.7798 11.1825 10.7777L12.8819 9.25717C13.0201 9.13461 13.2371 9.14292 13.3626 9.27795C13.4902 9.41297 13.4796 9.62277 13.3413 9.74741L12.7862 10.2439L15.883 12.6992C15.9447 12.7491 16 12.8031 16.051 12.8592V8.83964L14.8897 7.70546C14.7642 7.58082 14.5898 7.51019 14.409 7.51019V7.51019ZM16.7337 8.8438V13.4948C16.7337 13.8625 17.0379 14.1595 17.4144 14.1595H18.7756V8.8438H16.7337ZM17.7547 13.4948C17.5675 13.4948 17.4144 13.3452 17.4144 13.1624C17.4144 12.9796 17.5675 12.8301 17.7547 12.8301C17.9418 12.8301 18.095 12.9796 18.095 13.1624C18.095 13.3452 17.9418 13.4948 17.7547 13.4948ZM5.16333 14.1574H6.52455C6.90102 14.1574 7.20517 13.8604 7.20517 13.4927V8.8438H5.16333V14.1574ZM6.18425 12.8301C6.37142 12.8301 6.52455 12.9796 6.52455 13.1624C6.52455 13.3452 6.37142 13.4948 6.18425 13.4948C5.99708 13.4948 5.84394 13.3452 5.84394 13.1624C5.84394 12.9776 5.99708 12.8301 6.18425 12.8301ZM15.4555 13.2164L12.28 10.6988L11.6419 11.27C11.0102 11.833 10.0425 11.779 9.47884 11.1786C8.9067 10.5679 8.95136 9.62277 9.57242 9.06606L11.3122 7.51019H9.52988C9.3491 7.51019 9.17682 7.58082 9.0492 7.70546L7.88578 8.83964V13.4906H8.275L10.1999 15.1919C10.7826 15.6551 11.6398 15.5679 12.1141 14.9987L12.1183 14.9946L12.4991 15.3166C12.8372 15.5866 13.3371 15.5347 13.6114 15.2044L14.2793 14.4026L14.3941 14.494C14.6855 14.7245 15.1152 14.683 15.3512 14.3963L15.5533 14.1533C15.7915 13.8666 15.7469 13.4491 15.4555 13.2164V13.2164Z" fill="#D30B0B"/>
</svg>
