<svg width="47" height="48" viewBox="0 0 47 48" fill="none" xmlns="http://www.w3.org/2000/svg">
<g filter="url(#filter0_d_393_6)">
<ellipse rx="19.3288" ry="19.8973" transform="matrix(1 0 0 -1 23.3288 19.8972)" fill="#D02904" fill-opacity="0.98"/>
</g>
<path d="M22.946 14.3308C19.8406 14.3308 17.3357 16.8357 17.3357 19.9412C17.3357 23.0466 19.8406 25.5515 22.946 25.5515C26.0515 25.5515 28.5564 23.0466 28.5564 19.9412C28.5564 16.8357 26.0515 14.3308 22.946 14.3308ZM22.946 23.5886C20.9392 23.5886 19.2986 21.9529 19.2986 19.9412C19.2986 17.9294 20.9343 16.2937 22.946 16.2937C24.9578 16.2937 26.5935 17.9294 26.5935 19.9412C26.5935 21.9529 24.9529 23.5886 22.946 23.5886ZM30.0945 14.1013C30.0945 14.8289 29.5085 15.4099 28.7859 15.4099C28.0584 15.4099 27.4773 14.824 27.4773 14.1013C27.4773 13.3787 28.0632 12.7927 28.7859 12.7927C29.5085 12.7927 30.0945 13.3787 30.0945 14.1013ZM33.8103 15.4294C33.7273 13.6765 33.3269 12.1238 32.0427 10.8445C30.7634 9.56519 29.2107 9.16479 27.4578 9.0769C25.6511 8.97437 20.2361 8.97437 18.4294 9.0769C16.6814 9.15991 15.1287 9.5603 13.8445 10.8396C12.5603 12.1189 12.1648 13.6716 12.0769 15.4246C11.9744 17.2312 11.9744 22.6462 12.0769 24.4529C12.1599 26.2058 12.5603 27.7585 13.8445 29.0378C15.1287 30.3171 16.6765 30.7175 18.4294 30.8054C20.2361 30.908 25.6511 30.908 27.4578 30.8054C29.2107 30.7224 30.7634 30.322 32.0427 29.0378C33.322 27.7585 33.7224 26.2058 33.8103 24.4529C33.9128 22.6462 33.9128 17.2361 33.8103 15.4294ZM31.4763 26.3914C31.0955 27.3484 30.3582 28.0857 29.3962 28.4714C27.9558 29.0427 24.5378 28.9109 22.946 28.9109C21.3542 28.9109 17.9314 29.0378 16.4958 28.4714C15.5388 28.0906 14.8015 27.3533 14.4158 26.3914C13.8445 24.9509 13.9763 21.533 13.9763 19.9412C13.9763 18.3494 13.8494 14.9265 14.4158 13.491C14.7966 12.5339 15.5339 11.7966 16.4958 11.4109C17.9363 10.8396 21.3542 10.9714 22.946 10.9714C24.5378 10.9714 27.9607 10.8445 29.3962 11.4109C30.3533 11.7917 31.0906 12.5291 31.4763 13.491C32.0476 14.9314 31.9158 18.3494 31.9158 19.9412C31.9158 21.533 32.0476 24.9558 31.4763 26.3914Z" fill="white"/>
<defs>
<filter id="filter0_d_393_6" x="0" y="-3.05176e-05" width="46.6576" height="47.7945" filterUnits="userSpaceOnUse" color-interpolation-filters="sRGB">
<feFlood flood-opacity="0" result="BackgroundImageFix"/>
<feColorMatrix in="SourceAlpha" type="matrix" values="0 0 0 0 0 0 0 0 0 0 0 0 0 0 0 0 0 0 127 0" result="hardAlpha"/>
<feOffset dy="4"/>
<feGaussianBlur stdDeviation="2"/>
<feComposite in2="hardAlpha" operator="out"/>
<feColorMatrix type="matrix" values="0 0 0 0 0 0 0 0 0 0 0 0 0 0 0 0 0 0 0.25 0"/>
<feBlend mode="normal" in2="BackgroundImageFix" result="effect1_dropShadow_393_6"/>
<feBlend mode="normal" in="SourceGraphic" in2="effect1_dropShadow_393_6" result="shape"/>
</filter>
</defs>
</svg>
