<svg width="23" height="23" viewBox="0 0 23 23" fill="none" xmlns="http://www.w3.org/2000/svg">
<rect width="23" height="23" rx="11.5" fill="white"/>
<path d="M9.45608 16.536C9.45634 16.6957 9.50389 16.8521 9.59312 16.9852L10.0301 17.6374C10.1047 17.7489 10.206 17.8404 10.3248 17.9036C10.4436 17.9669 10.5764 18 10.7112 18H12.289C12.4239 18 12.5566 17.9669 12.6754 17.9036C12.7943 17.8404 12.8955 17.7489 12.9702 17.6374L13.4071 16.9852C13.4963 16.8521 13.544 16.6959 13.5442 16.536L13.5452 15.5623H9.4548L9.45608 16.536ZM7 9.46868C7 10.5952 7.4206 11.623 8.11375 12.4083C8.53614 12.8869 9.19682 13.8868 9.44866 14.7303C9.44969 14.7369 9.45045 14.7435 9.45148 14.7501H13.5485C13.5495 14.7435 13.5503 14.7371 13.5513 14.7303C13.8032 13.8868 14.4639 12.8869 14.8863 12.4083C15.5794 11.623 16 10.5952 16 9.46868C16 6.99594 13.9778 4.9924 11.4859 5.00002C8.87773 5.00789 7 7.10664 7 9.46868ZM11.5 7.43747C10.3722 7.43747 9.45455 8.34872 9.45455 9.46868C9.45455 9.69313 9.27148 9.87492 9.04545 9.87492C8.81943 9.87492 8.63636 9.69313 8.63636 9.46868C8.63636 7.90059 9.92091 6.62499 11.5 6.62499C11.726 6.62499 11.9091 6.80678 11.9091 7.03123C11.9091 7.25568 11.726 7.43747 11.5 7.43747Z" fill="#D02904"/>
</svg>
