<svg width="23" height="23" viewBox="0 0 23 23" fill="none" xmlns="http://www.w3.org/2000/svg">
<rect width="23" height="23" rx="11.5" fill="white"/>
<path d="M12 4C8.13306 4 5 7.13306 5 11C5 14.8669 8.13306 18 12 18C15.8669 18 19 14.8669 19 11C19 7.13306 15.8669 4 12 4ZM14.2581 8.74194C14.7577 8.74194 15.1613 9.14556 15.1613 9.64516C15.1613 10.1448 14.7577 10.5484 14.2581 10.5484C13.7585 10.5484 13.3548 10.1448 13.3548 9.64516C13.3548 9.14556 13.7585 8.74194 14.2581 8.74194ZM9.74194 8.74194C10.2415 8.74194 10.6452 9.14556 10.6452 9.64516C10.6452 10.1448 10.2415 10.5484 9.74194 10.5484C9.24234 10.5484 8.83871 10.1448 8.83871 9.64516C8.83871 9.14556 9.24234 8.74194 9.74194 8.74194ZM15.2403 13.546C14.4359 14.5113 13.256 15.0645 12 15.0645C10.744 15.0645 9.56411 14.5113 8.75968 13.546C8.37581 13.0859 9.07016 12.5101 9.45403 12.9673C10.0863 13.7266 11.0121 14.1585 12 14.1585C12.9879 14.1585 13.9137 13.7238 14.546 12.9673C14.9242 12.5101 15.6214 13.0859 15.2403 13.546Z" fill="#D02904"/>
</svg>
