<svg width="44" height="43" viewBox="0 0 44 43" fill="none" xmlns="http://www.w3.org/2000/svg">
<rect x="8" y="1" width="29" height="29" fill="white"/>
<g filter="url(#filter0_d_393_8)">
<path d="M36.1429 0H7.85714C5.72768 0 4 1.67969 4 3.75V31.25C4 33.3203 5.72768 35 7.85714 35H36.1429C38.2723 35 40 33.3203 40 31.25V3.75C40 1.67969 38.2723 0 36.1429 0ZM32.2134 12.4062C32.2295 12.625 32.2295 12.8516 32.2295 13.0703C32.2295 19.8438 26.9259 27.6484 17.2348 27.6484C14.2455 27.6484 11.4732 26.8047 9.14286 25.3516C9.56875 25.3984 9.97857 25.4141 10.4125 25.4141C12.8795 25.4141 15.1455 24.6016 16.9536 23.2266C14.6393 23.1797 12.6946 21.7031 12.0277 19.6719C12.8393 19.7891 13.5705 19.7891 14.4062 19.5781C11.9955 19.1016 10.1875 17.0391 10.1875 14.5469V14.4844C10.8866 14.8672 11.7063 15.1016 12.5661 15.1328C11.8432 14.6653 11.2506 14.0311 10.8412 13.2868C10.4318 12.5425 10.2182 11.7113 10.2196 10.8672C10.2196 9.91406 10.4768 9.03906 10.9348 8.28125C13.5304 11.3906 17.4277 13.4219 21.7991 13.6406C21.0518 10.1641 23.7277 7.34375 26.942 7.34375C28.4607 7.34375 29.8268 7.96094 30.7911 8.96094C31.9804 8.74219 33.1214 8.3125 34.1339 7.72656C33.7402 8.91406 32.9125 9.91406 31.8196 10.5469C32.8804 10.4375 33.9089 10.1484 34.8571 9.75C34.142 10.7734 33.242 11.6797 32.2134 12.4062Z" fill="#D02904"/>
</g>
<defs>
<filter id="filter0_d_393_8" x="0" y="0" width="44" height="43" filterUnits="userSpaceOnUse" color-interpolation-filters="sRGB">
<feFlood flood-opacity="0" result="BackgroundImageFix"/>
<feColorMatrix in="SourceAlpha" type="matrix" values="0 0 0 0 0 0 0 0 0 0 0 0 0 0 0 0 0 0 127 0" result="hardAlpha"/>
<feOffset dy="4"/>
<feGaussianBlur stdDeviation="2"/>
<feComposite in2="hardAlpha" operator="out"/>
<feColorMatrix type="matrix" values="0 0 0 0 0 0 0 0 0 0 0 0 0 0 0 0 0 0 0.25 0"/>
<feBlend mode="normal" in2="BackgroundImageFix" result="effect1_dropShadow_393_8"/>
<feBlend mode="normal" in="SourceGraphic" in2="effect1_dropShadow_393_8" result="shape"/>
</filter>
</defs>
</svg>
